# xmcd
#
# Track frame offsets:
# 150
# 14523
# 27589
# 38602
# 48608
# 70625
# 81552
# 93584
# 106774
# 119595
# 126465
# 138069
# 152522
# 162754
# 175190
# 185594
# 192495
# 202738
# 211058
# 222318
# 233274
# 245940
# 256074
# 266845
# 281510
#
# Disc length: 4204 seconds
#
#
# Revision: 2
# Processed by: cddbd v1.5.2PL0 Copyright (c) Steve Scherf et al.
# Submitted via: FreeRIP 2.951 
#
DISCID=66106a19
DTITLE=ADRIVALAN ORCHESTRA - TOP CLASSICS 2
DYEAR=1900
DGENRE=
TTITLE0=ADRIVALAN FASCINATION
TTITLE1=This is my Song
TTITLE2=Violetta
TTITLE3=Singing in the rain
TTITLE4=Waltz Medley
TTITLE5=Strangers in the Night
TTITLE6=Marina
TTITLE7=O Sole Mio
TTITLE8=Rote Rosen
TTITLE9=Ramona
TTITLE10=Wild Rover
TTITLE11=Hemelsblauw
TTITLE12=The Lion sleeps tonight
TTITLE13=Save your Love
TTITLE14=Smoke gets in your Eyes
TTITLE15=Norman
TTITLE16=Sancta Lucia
TTITLE17=Blue Moon
TTITLE18=J'attendrai
TTITLE19=Moon River
TTITLE20=Nel blu dipinto di Blu
TTITLE21=Winterwonderland
TTITLE22=What a Wonderfull World
TTITLE23=Quereme Mucho
TTITLE24=Chacha Medley
EXTD=
EXTT0=
EXTT1=
EXTT2=
EXTT3=
EXTT4=
EXTT5=
EXTT6=
EXTT7=
EXTT8=
EXTT9=
EXTT10=
EXTT11=
EXTT12=
EXTT13=
EXTT14=
EXTT15=
EXTT16=
EXTT17=
EXTT18=
EXTT19=
EXTT20=
EXTT21=
EXTT22=
EXTT23=
EXTT24=
PLAYORDER=
